<mxfile host="app.diagrams.net" modified="2023-05-11T10:35:30.235Z" agent="Mozilla/5.0 (Windows NT 10.0; Win64; x64) AppleWebKit/537.36 (KHTML, like Gecko) Chrome/109.0.0.0 Safari/537.36" etag="8Aji1V74sDX2eGxIJiHO" version="21.2.9" type="github">
  <diagram name="Page-1" id="U93oYaD1mTJyKaFVqeIX">
    <mxGraphModel dx="1360" dy="804" grid="1" gridSize="10" guides="1" tooltips="1" connect="1" arrows="1" fold="1" page="1" pageScale="1" pageWidth="827" pageHeight="1169" math="0" shadow="0">
      <root>
        <mxCell id="0" />
        <mxCell id="1" parent="0" />
        <mxCell id="MfUFjLrfiDlcuWJcYQXm-10" value="" style="rounded=0;whiteSpace=wrap;html=1;fillColor=#d5e8d4;strokeColor=#82b366;" parent="1" vertex="1">
          <mxGeometry x="80" y="230" width="200" height="170" as="geometry" />
        </mxCell>
        <mxCell id="MfUFjLrfiDlcuWJcYQXm-2" value="" style="rounded=1;whiteSpace=wrap;html=1;fillColor=#fff2cc;strokeColor=#d6b656;" parent="1" vertex="1">
          <mxGeometry x="110" y="310" width="140" height="70" as="geometry" />
        </mxCell>
        <mxCell id="MfUFjLrfiDlcuWJcYQXm-5" value="L7 功能（lua）" style="rounded=1;whiteSpace=wrap;html=1;fillColor=#f8cecc;strokeColor=#b85450;" parent="1" vertex="1">
          <mxGeometry x="80" y="150" width="200" height="40" as="geometry" />
        </mxCell>
        <mxCell id="MfUFjLrfiDlcuWJcYQXm-8" value="openresty-extension" style="rounded=1;whiteSpace=wrap;html=1;fillColor=#fff2cc;strokeColor=#d6b656;" parent="1" vertex="1">
          <mxGeometry x="110" y="260" width="140" height="30" as="geometry" />
        </mxCell>
        <mxCell id="MfUFjLrfiDlcuWJcYQXm-11" value="openresy" style="text;html=1;strokeColor=none;fillColor=none;align=center;verticalAlign=middle;whiteSpace=wrap;rounded=0;" parent="1" vertex="1">
          <mxGeometry x="110" y="400" width="60" height="30" as="geometry" />
        </mxCell>
        <mxCell id="MfUFjLrfiDlcuWJcYQXm-12" value="" style="rounded=0;whiteSpace=wrap;html=1;fillColor=#d5e8d4;strokeColor=#82b366;" parent="1" vertex="1">
          <mxGeometry x="430" y="230" width="360" height="190" as="geometry" />
        </mxCell>
        <mxCell id="MfUFjLrfiDlcuWJcYQXm-13" value="" style="rounded=1;whiteSpace=wrap;html=1;fillColor=#fff2cc;strokeColor=#d6b656;" parent="1" vertex="1">
          <mxGeometry x="450" y="277" width="160" height="130" as="geometry" />
        </mxCell>
        <mxCell id="MfUFjLrfiDlcuWJcYQXm-14" value="L7 功能（lua）" style="rounded=1;whiteSpace=wrap;html=1;fillColor=#f8cecc;strokeColor=#b85450;" parent="1" vertex="1">
          <mxGeometry x="430" y="150" width="360" height="40" as="geometry" />
        </mxCell>
        <mxCell id="MfUFjLrfiDlcuWJcYQXm-15" value="" style="rounded=1;whiteSpace=wrap;html=1;fillColor=#fff2cc;strokeColor=#d6b656;" parent="1" vertex="1">
          <mxGeometry x="445" y="240" width="165" height="30" as="geometry" />
        </mxCell>
        <mxCell id="MfUFjLrfiDlcuWJcYQXm-16" value="openresy" style="text;html=1;strokeColor=none;fillColor=none;align=center;verticalAlign=middle;whiteSpace=wrap;rounded=0;" parent="1" vertex="1">
          <mxGeometry x="470" y="420" width="60" height="30" as="geometry" />
        </mxCell>
        <mxCell id="MfUFjLrfiDlcuWJcYQXm-17" value="fstack" style="rounded=1;whiteSpace=wrap;html=1;fillColor=#e1d5e7;strokeColor=#9673a6;" parent="1" vertex="1">
          <mxGeometry x="590" y="323.75" width="170" height="66.25" as="geometry" />
        </mxCell>
        <mxCell id="MfUFjLrfiDlcuWJcYQXm-18" value="nginx" style="text;html=1;strokeColor=none;fillColor=none;align=center;verticalAlign=middle;whiteSpace=wrap;rounded=0;" parent="1" vertex="1">
          <mxGeometry x="460" y="287" width="60" height="30" as="geometry" />
        </mxCell>
        <mxCell id="MfUFjLrfiDlcuWJcYQXm-19" value="L7 binddevice" style="rounded=0;whiteSpace=wrap;html=1;fillColor=#f8cecc;strokeColor=#b85450;" parent="1" vertex="1">
          <mxGeometry x="480" y="319.5" width="90" height="25" as="geometry" />
        </mxCell>
        <mxCell id="MfUFjLrfiDlcuWJcYQXm-20" value="L7 binddevice" style="rounded=0;whiteSpace=wrap;html=1;fillColor=#f8cecc;strokeColor=#b85450;" parent="1" vertex="1">
          <mxGeometry x="140" y="345" width="100" height="25" as="geometry" />
        </mxCell>
        <mxCell id="MfUFjLrfiDlcuWJcYQXm-21" value="nginx" style="text;html=1;strokeColor=none;fillColor=none;align=center;verticalAlign=middle;whiteSpace=wrap;rounded=0;" parent="1" vertex="1">
          <mxGeometry x="110" y="315" width="60" height="30" as="geometry" />
        </mxCell>
        <mxCell id="MfUFjLrfiDlcuWJcYQXm-24" value="L7 fstack" style="rounded=0;whiteSpace=wrap;html=1;fillColor=#f8cecc;strokeColor=#b85450;" parent="1" vertex="1">
          <mxGeometry x="480" y="362" width="90" height="25" as="geometry" />
        </mxCell>
        <mxCell id="MfUFjLrfiDlcuWJcYQXm-26" value="openresty-extension（本次故障需要修改点）" style="text;html=1;strokeColor=none;fillColor=none;align=center;verticalAlign=middle;whiteSpace=wrap;rounded=0;" parent="1" vertex="1">
          <mxGeometry x="445" y="240" width="155" height="30" as="geometry" />
        </mxCell>
        <mxCell id="MfUFjLrfiDlcuWJcYQXm-27" value="&lt;h1&gt;非fstack场景&lt;/h1&gt;&lt;p&gt;L7 基于 openresty 框架开发了业务代码（Lua）&lt;/p&gt;&lt;p&gt;为了满足L7 binddevice 需要，在nginx 源码中添加了binddevice 相关适配&lt;/p&gt;" style="text;html=1;strokeColor=none;fillColor=none;spacing=5;spacingTop=-20;whiteSpace=wrap;overflow=hidden;rounded=0;" parent="1" vertex="1">
          <mxGeometry x="80" y="464.5" width="210" height="145.5" as="geometry" />
        </mxCell>
        <mxCell id="MfUFjLrfiDlcuWJcYQXm-28" value="&lt;h1&gt;fstack场景&lt;/h1&gt;&lt;p&gt;L7 基于 openresty 框架开发了业务代码（Lua）&lt;/p&gt;&lt;p&gt;L7 为了满足L7 binddevice 需要，在nginx 源码中添加了binddevice 相关适配&lt;/p&gt;&lt;p&gt;L7 为了适配fstack 代码，在nginx 中添加了部分适配代码&lt;/p&gt;&lt;p&gt;&lt;br&gt;&lt;/p&gt;&lt;p&gt;fstack 添加了部分fstack代码（dpdk， freebsd）&lt;/p&gt;&lt;p&gt;fstack 修改了 部分原生nginx 代码&lt;/p&gt;" style="text;html=1;strokeColor=none;fillColor=none;spacing=5;spacingTop=-20;whiteSpace=wrap;overflow=hidden;rounded=0;" parent="1" vertex="1">
          <mxGeometry x="430" y="464.5" width="360" height="215.5" as="geometry" />
        </mxCell>
        <mxCell id="j0aZiDZ4DP7XxtKHLdAm-6" value="" style="edgeStyle=orthogonalEdgeStyle;rounded=0;orthogonalLoop=1;jettySize=auto;html=1;" edge="1" parent="1" source="j0aZiDZ4DP7XxtKHLdAm-1" target="j0aZiDZ4DP7XxtKHLdAm-5">
          <mxGeometry relative="1" as="geometry" />
        </mxCell>
        <mxCell id="j0aZiDZ4DP7XxtKHLdAm-1" value="升级版本" style="rounded=1;whiteSpace=wrap;html=1;" vertex="1" parent="1">
          <mxGeometry x="280" y="940" width="120" height="60" as="geometry" />
        </mxCell>
        <mxCell id="j0aZiDZ4DP7XxtKHLdAm-7" value="" style="edgeStyle=orthogonalEdgeStyle;rounded=0;orthogonalLoop=1;jettySize=auto;html=1;" edge="1" parent="1" source="j0aZiDZ4DP7XxtKHLdAm-2" target="j0aZiDZ4DP7XxtKHLdAm-3">
          <mxGeometry relative="1" as="geometry" />
        </mxCell>
        <mxCell id="j0aZiDZ4DP7XxtKHLdAm-2" value="" style="ellipse;whiteSpace=wrap;html=1;aspect=fixed;" vertex="1" parent="1">
          <mxGeometry x="130" y="780" width="80" height="80" as="geometry" />
        </mxCell>
        <mxCell id="j0aZiDZ4DP7XxtKHLdAm-4" style="edgeStyle=orthogonalEdgeStyle;rounded=0;orthogonalLoop=1;jettySize=auto;html=1;entryX=0;entryY=0.5;entryDx=0;entryDy=0;" edge="1" parent="1" source="j0aZiDZ4DP7XxtKHLdAm-3" target="j0aZiDZ4DP7XxtKHLdAm-1">
          <mxGeometry relative="1" as="geometry" />
        </mxCell>
        <mxCell id="j0aZiDZ4DP7XxtKHLdAm-10" value="" style="edgeStyle=orthogonalEdgeStyle;rounded=0;orthogonalLoop=1;jettySize=auto;html=1;" edge="1" parent="1" source="j0aZiDZ4DP7XxtKHLdAm-3" target="j0aZiDZ4DP7XxtKHLdAm-8">
          <mxGeometry relative="1" as="geometry" />
        </mxCell>
        <mxCell id="j0aZiDZ4DP7XxtKHLdAm-3" value="存在故障修复版本" style="rhombus;whiteSpace=wrap;html=1;" vertex="1" parent="1">
          <mxGeometry x="130" y="930" width="80" height="80" as="geometry" />
        </mxCell>
        <mxCell id="j0aZiDZ4DP7XxtKHLdAm-5" value="" style="ellipse;whiteSpace=wrap;html=1;aspect=fixed;strokeWidth=5;" vertex="1" parent="1">
          <mxGeometry x="492.5" y="940" width="70" height="70" as="geometry" />
        </mxCell>
        <mxCell id="j0aZiDZ4DP7XxtKHLdAm-11" value="" style="edgeStyle=orthogonalEdgeStyle;rounded=0;orthogonalLoop=1;jettySize=auto;html=1;" edge="1" parent="1" source="j0aZiDZ4DP7XxtKHLdAm-8" target="j0aZiDZ4DP7XxtKHLdAm-9">
          <mxGeometry relative="1" as="geometry" />
        </mxCell>
        <mxCell id="j0aZiDZ4DP7XxtKHLdAm-13" value="" style="edgeStyle=orthogonalEdgeStyle;rounded=0;orthogonalLoop=1;jettySize=auto;html=1;" edge="1" parent="1" source="j0aZiDZ4DP7XxtKHLdAm-8" target="j0aZiDZ4DP7XxtKHLdAm-12">
          <mxGeometry relative="1" as="geometry" />
        </mxCell>
        <mxCell id="j0aZiDZ4DP7XxtKHLdAm-8" value="存在故障修复补丁" style="rhombus;whiteSpace=wrap;html=1;" vertex="1" parent="1">
          <mxGeometry x="130" y="1060" width="80" height="80" as="geometry" />
        </mxCell>
        <mxCell id="j0aZiDZ4DP7XxtKHLdAm-9" value="更新故障代码修复" style="rounded=1;whiteSpace=wrap;html=1;" vertex="1" parent="1">
          <mxGeometry x="280" y="1070" width="120" height="60" as="geometry" />
        </mxCell>
        <mxCell id="j0aZiDZ4DP7XxtKHLdAm-15" value="" style="edgeStyle=orthogonalEdgeStyle;rounded=0;orthogonalLoop=1;jettySize=auto;html=1;" edge="1" parent="1" source="j0aZiDZ4DP7XxtKHLdAm-12" target="j0aZiDZ4DP7XxtKHLdAm-14">
          <mxGeometry relative="1" as="geometry" />
        </mxCell>
        <mxCell id="j0aZiDZ4DP7XxtKHLdAm-12" value="通过业务代码规避" style="rounded=1;whiteSpace=wrap;html=1;" vertex="1" parent="1">
          <mxGeometry x="110" y="1210" width="120" height="60" as="geometry" />
        </mxCell>
        <mxCell id="j0aZiDZ4DP7XxtKHLdAm-14" value="" style="ellipse;whiteSpace=wrap;html=1;rounded=1;strokeWidth=5;" vertex="1" parent="1">
          <mxGeometry x="130" y="1340" width="60" height="60" as="geometry" />
        </mxCell>
        <mxCell id="j0aZiDZ4DP7XxtKHLdAm-16" value="Text" style="text;html=1;strokeColor=none;fillColor=none;align=center;verticalAlign=middle;whiteSpace=wrap;rounded=0;" vertex="1" parent="1">
          <mxGeometry x="380" y="370" width="60" height="30" as="geometry" />
        </mxCell>
        <mxCell id="j0aZiDZ4DP7XxtKHLdAm-17" value="Text" style="text;html=1;strokeColor=none;fillColor=none;align=center;verticalAlign=middle;whiteSpace=wrap;rounded=0;" vertex="1" parent="1">
          <mxGeometry x="380" y="370" width="60" height="30" as="geometry" />
        </mxCell>
      </root>
    </mxGraphModel>
  </diagram>
</mxfile>
